<svg width="200" height="51" viewBox="0 0 200 51" fill="none" xmlns="http://www.w3.org/2000/svg">
<path d="M10.35 18.41V37.31C10.35 39.2 10.815 40.655 11.745 41.675C12.675 42.695 14.04 43.205 15.84 43.205C17.64 43.205 19.02 42.695 19.98 41.675C20.94 40.655 21.42 39.2 21.42 37.31V18.41H29.115V37.265C29.115 40.085 28.515 42.47 27.315 44.42C26.115 46.37 24.495 47.84 22.455 48.83C20.445 49.82 18.195 50.315 15.705 50.315C13.215 50.315 10.98 49.835 9 48.875C7.05 47.885 5.505 46.415 4.365 44.465C3.225 42.485 2.655 40.085 2.655 37.265V18.41H10.35ZM49.8185 24.62C52.7585 24.62 55.0985 25.58 56.8385 27.5C58.6085 29.39 59.4935 32 59.4935 35.33V50H51.8435V36.365C51.8435 34.685 51.4085 33.38 50.5385 32.45C49.6685 31.52 48.4985 31.055 47.0285 31.055C45.5585 31.055 44.3885 31.52 43.5185 32.45C42.6485 33.38 42.2135 34.685 42.2135 36.365V50H34.5185V24.89H42.2135V28.22C42.9935 27.11 44.0435 26.24 45.3635 25.61C46.6835 24.95 48.1685 24.62 49.8185 24.62Z" fill="#4D49FF"/>
<path d="M85.4058 18.41V24.575H72.5358V31.235H82.1658V37.22H72.5358V50H64.8408V18.41H85.4058ZM100.88 50.36C98.4202 50.36 96.2002 49.835 94.2202 48.785C92.2702 47.735 90.7252 46.235 89.5852 44.285C88.4752 42.335 87.9202 40.055 87.9202 37.445C87.9202 34.865 88.4902 32.6 89.6302 30.65C90.7702 28.67 92.3302 27.155 94.3102 26.105C96.2902 25.055 98.5102 24.53 100.97 24.53C103.43 24.53 105.65 25.055 107.63 26.105C109.61 27.155 111.17 28.67 112.31 30.65C113.45 32.6 114.02 34.865 114.02 37.445C114.02 40.025 113.435 42.305 112.265 44.285C111.125 46.235 109.55 47.735 107.54 48.785C105.56 49.835 103.34 50.36 100.88 50.36ZM100.88 43.7C102.35 43.7 103.595 43.16 104.615 42.08C105.665 41 106.19 39.455 106.19 37.445C106.19 35.435 105.68 33.89 104.66 32.81C103.67 31.73 102.44 31.19 100.97 31.19C99.4702 31.19 98.2252 31.73 97.2352 32.81C96.2452 33.86 95.7502 35.405 95.7502 37.445C95.7502 39.455 96.2302 41 97.1902 42.08C98.1802 43.16 99.4102 43.7 100.88 43.7ZM125.798 29.075C126.698 27.695 127.823 26.615 129.173 25.835C130.523 25.025 132.023 24.62 133.673 24.62V32.765H131.558C129.638 32.765 128.198 33.185 127.238 34.025C126.278 34.835 125.798 36.275 125.798 38.345V50H118.103V24.89H125.798V29.075ZM161.021 37.04C161.021 37.76 160.976 38.51 160.886 39.29H143.471C143.591 40.85 144.086 42.05 144.956 42.89C145.856 43.7 146.951 44.105 148.241 44.105C150.161 44.105 151.496 43.295 152.246 41.675H160.436C160.016 43.325 159.251 44.81 158.141 46.13C157.061 47.45 155.696 48.485 154.046 49.235C152.396 49.985 150.551 50.36 148.511 50.36C146.051 50.36 143.861 49.835 141.941 48.785C140.021 47.735 138.521 46.235 137.441 44.285C136.361 42.335 135.821 40.055 135.821 37.445C135.821 34.835 136.346 32.555 137.396 30.605C138.476 28.655 139.976 27.155 141.896 26.105C143.816 25.055 146.021 24.53 148.511 24.53C150.941 24.53 153.101 25.04 154.991 26.06C156.881 27.08 158.351 28.535 159.401 30.425C160.481 32.315 161.021 34.52 161.021 37.04ZM153.146 35.015C153.146 33.695 152.696 32.645 151.796 31.865C150.896 31.085 149.771 30.695 148.421 30.695C147.131 30.695 146.036 31.07 145.136 31.82C144.266 32.57 143.726 33.635 143.516 35.015H153.146ZM180.38 24.62C183.32 24.62 185.66 25.58 187.4 27.5C189.17 29.39 190.055 32 190.055 35.33V50H182.405V36.365C182.405 34.685 181.97 33.38 181.1 32.45C180.23 31.52 179.06 31.055 177.59 31.055C176.12 31.055 174.95 31.52 174.08 32.45C173.21 33.38 172.775 34.685 172.775 36.365V50H165.08V24.89H172.775V28.22C173.555 27.11 174.605 26.24 175.925 25.61C177.245 24.95 178.73 24.62 180.38 24.62Z" fill="#FFAB2E"/>
</svg>
